# xmcd CD database file
#
# Track frame offsets:
#	150
#	13004
#	28615
#	40647
#	61040
#	75606
#
# Disc length: 1171 seconds
#
# Revision: 0
# Processed by: cddbd v1.4PL0 Copyright (c) Steve Scherf et al.
# Submitted via: CDex 1.50beta9
#
DISCID=38049106
DTITLE=Crimson Rose - Crimson Rose
DYEAR=2002
DGENRE=Country
TTITLE0=Rodeo Romeo
TTITLE1=Daydreamin' In The Middle Of The Night
TTITLE2=It Ain't The First Time
TTITLE3=I'm Sorry Colleen
TTITLE4=Get A Grip
TTITLE5=Six Gun Attitude
EXTD=YEAR: 2002
EXTT0=
EXTT1=
EXTT2=
EXTT3=
EXTT4=
EXTT5=
PLAYORDER=
